<svg width="128" height="128" viewBox="0 0 128 128" fill="none" xmlns="http://www.w3.org/2000/svg">
<g clip-path="url(#clip0_1_2)">
<path d="M48.95 123.005C45.5295 123.005 2.77418 5 6.19461 5C9.61504 5 39.5438 26.8812 48.95 27.057C58.3561 27.2328 87.4298 5 91.7053 5C95.9809 5 52.3704 123.005 48.95 123.005Z" fill="white" stroke="black"/>
<mask id="path-2-outside-1_1_2" maskUnits="userSpaceOnUse" x="95" y="13" width="25" height="108" fill="black">
<rect fill="white" x="95" y="13" width="25" height="108"/>
<path d="M104.07 88.8691L97.9473 28.5664C97.5143 23.9896 98.1947 20.4333 99.9883 17.8975C101.782 15.3617 104.225 14.0938 107.317 14.0938C110.534 14.0938 113.038 15.3617 114.832 17.8975C116.688 20.4333 117.368 23.9896 116.873 28.5664L110.75 88.8691H104.07ZM107.317 119.484C104.349 119.484 101.813 118.495 99.71 116.516C97.6689 114.536 96.6484 112.032 96.6484 109.001C96.6484 105.97 97.6689 103.465 99.71 101.486C101.813 99.4453 104.349 98.4248 107.317 98.4248C110.472 98.4248 113.1 99.4453 115.203 101.486C117.306 103.465 118.357 105.97 118.357 109.001C118.357 112.032 117.306 114.536 115.203 116.516C113.1 118.495 110.472 119.484 107.317 119.484Z"/>
</mask>
<path d="M104.07 88.8691L97.9473 28.5664C97.5143 23.9896 98.1947 20.4333 99.9883 17.8975C101.782 15.3617 104.225 14.0938 107.317 14.0938C110.534 14.0938 113.038 15.3617 114.832 17.8975C116.688 20.4333 117.368 23.9896 116.873 28.5664L110.75 88.8691H104.07ZM107.317 119.484C104.349 119.484 101.813 118.495 99.71 116.516C97.6689 114.536 96.6484 112.032 96.6484 109.001C96.6484 105.97 97.6689 103.465 99.71 101.486C101.813 99.4453 104.349 98.4248 107.317 98.4248C110.472 98.4248 113.1 99.4453 115.203 101.486C117.306 103.465 118.357 105.97 118.357 109.001C118.357 112.032 117.306 114.536 115.203 116.516C113.1 118.495 110.472 119.484 107.317 119.484Z" fill="white"/>
<path d="M104.07 88.8691L103.075 88.9702L103.167 89.8691H104.07V88.8691ZM97.9473 28.5664L96.9517 28.6606L96.9524 28.6674L97.9473 28.5664ZM99.9883 17.8975L99.1719 17.32L99.9883 17.8975ZM114.832 17.8975L114.016 18.4749L114.02 18.4815L114.025 18.488L114.832 17.8975ZM116.873 28.5664L115.879 28.4589L115.878 28.4654L116.873 28.5664ZM110.75 88.8691V89.8691H111.654L111.745 88.9702L110.75 88.8691ZM99.71 116.516L99.0138 117.234L99.0192 117.239L99.0246 117.244L99.71 116.516ZM99.71 101.486L100.406 102.204L100.406 102.204L99.71 101.486ZM115.203 101.486L114.507 102.204L114.512 102.209L114.518 102.215L115.203 101.486ZM104.07 88.8691L105.065 88.7681L98.9422 28.4654L97.9473 28.5664L96.9524 28.6674L103.075 88.9702L104.07 88.8691ZM97.9473 28.5664L98.9428 28.4722C98.5219 24.0224 99.2023 20.7404 100.805 18.4749L99.9883 17.8975L99.1719 17.32C97.187 20.1261 96.5068 23.9568 96.9517 28.6606L97.9473 28.5664ZM99.9883 17.8975L100.805 18.4749C102.412 16.2027 104.551 15.0938 107.317 15.0938V14.0938V13.0938C103.899 13.0938 101.152 14.5206 99.1719 17.32L99.9883 17.8975ZM107.317 14.0938V15.0938C110.223 15.0938 112.417 16.2151 114.016 18.4749L114.832 17.8975L115.648 17.32C113.66 14.5082 110.844 13.0938 107.317 13.0938V14.0938ZM114.832 17.8975L114.025 18.488C115.677 20.7464 116.359 24.0165 115.879 28.4589L116.873 28.5664L117.867 28.6739C118.377 23.9626 117.698 20.1202 115.639 17.307L114.832 17.8975ZM116.873 28.5664L115.878 28.4654L109.755 88.7681L110.75 88.8691L111.745 88.9702L117.868 28.6674L116.873 28.5664ZM110.75 88.8691V87.8691H104.07V88.8691V89.8691H110.75V88.8691ZM107.317 119.484V118.484C104.595 118.484 102.307 117.587 100.395 115.787L99.71 116.516L99.0246 117.244C101.319 119.403 104.102 120.484 107.317 120.484V119.484ZM99.71 116.516L100.406 115.798C98.5731 114.02 97.6484 111.781 97.6484 109.001H96.6484H95.6484C95.6484 112.282 96.7647 115.053 99.0138 117.234L99.71 116.516ZM96.6484 109.001H97.6484C97.6484 106.221 98.5731 103.982 100.406 102.204L99.71 101.486L99.0138 100.768C96.7647 102.949 95.6484 105.72 95.6484 109.001H96.6484ZM99.71 101.486L100.406 102.204C102.32 100.347 104.605 99.4248 107.317 99.4248V98.4248V97.4248C104.092 97.4248 101.306 98.544 99.0135 100.769L99.71 101.486ZM107.317 98.4248V99.4248C110.233 99.4248 112.606 100.359 114.507 102.204L115.203 101.486L115.9 100.769C113.595 98.5319 110.71 97.4248 107.317 97.4248V98.4248ZM115.203 101.486L114.518 102.215C116.409 103.994 117.357 106.231 117.357 109.001H118.357H119.357C119.357 105.71 118.203 102.937 115.888 100.758L115.203 101.486ZM118.357 109.001H117.357C117.357 111.771 116.409 114.007 114.518 115.787L115.203 116.516L115.888 117.244C118.203 115.065 119.357 112.292 119.357 109.001H118.357ZM115.203 116.516L114.518 115.787C112.618 117.575 110.243 118.484 107.317 118.484V119.484V120.484C110.701 120.484 113.582 119.414 115.888 117.244L115.203 116.516Z" fill="black" mask="url(#path-2-outside-1_1_2)"/>
</g>
<defs>
<clipPath id="clip0_1_2">
<rect width="128" height="128" fill="white"/>
</clipPath>
</defs>
</svg>
